<svg width="26" height="26" viewBox="0 0 26 26" xmlns="http://www.w3.org/2000/svg">
<path fill="currentColor" fill-rule="evenodd" clip-rule="evenodd"
			d="M18.1651 16.2277C18.7037 16.7663 18.7074 17.6299 18.1688 18.1703C17.6358
			18.7033 16.7685 18.707 16.2281 18.1666L12.9985 14.9389L9.7708 18.1666C9.23037
			18.7033 8.36866 18.707 7.83009 18.1703C7.29523 17.6336 7.29337
			16.77 7.8338 16.2277L11.0615 13L7.8338 9.77229C7.29894 9.23558
			7.29337 8.37201 7.83009 7.83158C8.36494 7.29486 9.22851 7.29301
			9.7708 7.83158L12.9985 11.0593L16.2281 7.83158C16.7648 7.29672
			17.6321 7.29301 18.1688 7.83158C18.7037 8.36643 18.7074 9.22815
			18.1651 9.77229L14.9392 13L18.1651 16.2277ZM13 0C5.82214 0 0 5.82214 0
			13C0 20.1779 5.82214 26 13 26C20.1797 26 26 20.1779 26 13C26 5.82214 20.1797 0 13 0Z"/>
</svg>
