<svg width="290" height="141" viewBox="0 0 290 141" fill="none" xmlns="http://www.w3.org/2000/svg">
<path fill-rule="evenodd" clip-rule="evenodd" d="M0 76.5435V62.2727H64.0711V76.5435H39.8933V138.706H24.1778V76.5435H0ZM124.111 78.478V138.706H109.363V128.91C104.89 137.859 96.9114 140.762 88.4491 140.762C75.6349 140.762 67.1727 133.022 67.1727 118.388V78.478H83.8554V115.364C83.8554 124.798 88.57 127.216 94.7354 127.216C100.296 126.975 104.769 123.951 107.429 118.63V78.478H124.111ZM136.64 121.055V66.9952L153.202 61.553V78.4845H171.698V91.304H153.202V118.152C153.323 123.232 155.983 125.167 161.664 125.167C164.445 125.167 167.588 124.804 170.247 123.232V137.14C166.742 139.196 162.148 140.284 155.983 140.284C143.773 140.284 136.64 134.6 136.64 121.055ZM210.22 140.765C188.218 140.523 177.459 125.647 177.459 108.958C177.459 90.4542 189.669 76.4252 210.22 76.4252C232.464 76.4252 243.102 91.6636 243.102 108.232C243.102 126.615 230.892 140.765 210.22 140.765ZM210.22 90.2203C198.373 90.2203 194.625 99.6536 194.625 107.998C194.625 117.794 199.098 126.986 210.22 126.986C222.188 126.986 226.057 117.553 226.057 109.087C226.057 99.4117 221.463 90.2203 210.22 90.2203ZM250 138.71V78.4827H264.667L265.758 88.8834C270.727 79.4502 279.455 76.7895 288.061 76.7895C288.909 76.7895 289.515 76.7895 290 76.9105V93.6001C287.818 93.1163 285.394 92.8744 283.091 92.8744C276.182 92.8744 269.394 95.4142 266.727 102.066V138.71H250Z" fill="white"/>
<path fill-rule="evenodd" clip-rule="evenodd" d="M290 0.765137V59.7159H157L290 0.765137Z" fill="url(#paint0_linear)"/>
<defs>
<linearGradient id="paint0_linear" x1="290" y1="1.44598" x2="160.072" y2="1.44598" gradientUnits="userSpaceOnUse">
<stop stop-color="#AAAAB8" stop-opacity="0"/>
<stop offset="1" stop-color="white"/>
</linearGradient>
</defs>
</svg>
